<svg xmlns="http://www.w3.org/2000/svg" width="281.718" height="174.583" viewBox="0 0 281.718 174.583"><defs><style>.a{fill:#f2f2f2;}.b{fill:#fff;}.c{fill:#2f2e41;}.d{fill:#3f3d56;}.e{fill:#52a657;}.f{fill:#e6e6e6;}.g{fill:#ffb6b6;}.h{fill:#ffb8b8;}.i{fill:#91ffb9;}.j{fill:#cacaca;}</style></defs><path class="a" d="M932.4,497.063l-.187-.239-.185-.24-.183-.241-.181-.243q-.151-3.509,0-6.956.143-3.423.579-6.763.431-3.315,1.141-6.529.7-3.189,1.68-6.257.111-.354.226-.7t.235-.7q.119-.348.242-.693t.25-.687q.94-2.562,2.068-5,1.121-2.42,2.421-4.705,1.29-2.27,2.751-4.4,1.45-2.114,3.062-4.08l.169-.206.17-.2.171-.2.171-.2.123-.145.124-.145.126-.144q.063-.071.128-.141l.1-.056.1-.055.1-.055.1-.055.006,0,.006,0,.006,0,.006,0,.041-.022.04-.022.039-.022.038-.022.176-.094.175-.093.175-.092.173-.093-.132-.066-.332-.165h0l.085.039.085.039.084.04.084.041.032.014.033.014.033.014a.223.223,0,0,1,.032.016.175.175,0,0,0,.029.012l.029.012.029.012.029.012c1.211.555,2.426,1.119,3.624,1.71s2.379,1.207,3.527,1.87a37.692,37.692,0,0,1,3.325,2.149,27.28,27.28,0,0,1,3.021,2.533,19.863,19.863,0,0,1,2.66,3.211,17.644,17.644,0,0,1,1.87,3.651,13.067,13.067,0,0,1,.815,3.815,9.393,9.393,0,0,1-.519,3.7q-.085.232-.183.457t-.21.444q-.111.219-.236.43t-.261.414q-.057.085-.117.168t-.121.165l-.124.163q-.063.081-.127.161a8.464,8.464,0,0,1-2.949,2.355,9.433,9.433,0,0,1-3.686.914,10.814,10.814,0,0,1-3.956-.574,11.828,11.828,0,0,1-3.74-2.1,12.03,12.03,0,0,1-1.087-1.018,11.891,11.891,0,0,1-.944-1.134,11.6,11.6,0,0,1-.788-1.233,11.2,11.2,0,0,1-.619-1.313,9.818,9.818,0,0,0,.637,4.11,15.726,15.726,0,0,0,2.145,3.845,28.018,28.018,0,0,0,3.125,3.5c1.145,1.1,2.362,2.127,3.563,3.075s2.445,1.917,3.65,2.929a40.934,40.934,0,0,1,3.43,3.181,20.841,20.841,0,0,1,2.768,3.571,13.521,13.521,0,0,1,1.662,4.114,10.708,10.708,0,0,1-.051,4.8,11.491,11.491,0,0,1-.785,2.225,12.56,12.56,0,0,1-1.218,2.044l-.044.059-.044.058-.045.058-.046.058a13.907,13.907,0,0,1-4.228,3.671,14.181,14.181,0,0,1-2.6,1.137,14.652,14.652,0,0,1-2.843.612,18.53,18.53,0,0,1-5.495-.315,24.444,24.444,0,0,1-5.386-1.8,32.739,32.739,0,0,1-5.077-2.958,40.454,40.454,0,0,1-4.573-3.768q-.57-.543-1.119-1.106t-1.078-1.145q-.529-.582-1.035-1.182T932.4,497.063Z" transform="translate(-687.594 -360.166)"/><path class="b" d="M996.067,469.955a26.968,26.968,0,0,1-8.776-7.277,26.066,26.066,0,0,1-2.121-3.149,25.452,25.452,0,0,1-1.4-2.879,24.09,24.09,0,0,1-.994-2.959,22.672,22.672,0,0,1-.582-2.992,21.255,21.255,0,0,1-.163-2.981q0-.084,0-.167t0-.167q0-.084.006-.166l.008-.166-.143.114-.142.116-.141.116-.141.117-.091.075-.091.076-.09.076-.089.076.123-.145.126-.15.126-.144q.063-.072.128-.141l.1-.056.1-.055.1-.055.1-.055.006,0,.006,0,.006,0,.006,0,.041-.022.04-.022.039-.022.038-.022.176-.094.175-.093.175-.092.175-.093-.137-.068-.332-.166h0l.085.039.085.039.084.04.084.041.032.014.033.014.033.014a.223.223,0,0,1,.032.016l0,.053,0,.049,0,.049,0,.05a20.206,20.206,0,0,0,.26,5.022,22.615,22.615,0,0,0,1.486,4.961,24.775,24.775,0,0,0,2.634,4.669,26.124,26.124,0,0,0,3.689,4.139,26.578,26.578,0,0,0,4.5,3.246,25.889,25.889,0,0,0,2.45,1.236,25.087,25.087,0,0,0,2.547.957q-.057.085-.117.168t-.121.165l-.124.163q-.063.081-.127.161-.5-.166-1-.353t-.986-.395q-.49-.207-.974-.435T996.067,469.955Z" transform="translate(-721.722 -360.165)"/><path class="b" d="M947.155,527.907q-.558-.833-1.053-1.7t-.925-1.751q-.43-.888-.795-1.8t-.66-1.836q-.151-.491-.279-.986t-.231-.991q-.1-.5-.184-.995t-.136-1q-.028-.232-.05-.465t-.04-.465q-.017-.233-.029-.465t-.019-.464q.111-.354.226-.7t.234-.7q.119-.348.242-.693t.25-.687q-.028.287-.047.575t-.031.578q-.012.29-.015.581t0,.584q0,.159,0,.319t.008.319q.006.159.014.319t.019.319a20.265,20.265,0,0,0,.559,3.535,23.7,23.7,0,0,0,1.147,3.438,28.445,28.445,0,0,0,1.652,3.306,34.207,34.207,0,0,0,2.071,3.139q1.207,1.632,2.551,3.178t2.791,3.007q1.448,1.46,2.98,2.829t3.116,2.644q1.622,1.309,3.309,2.518t3.43,2.313q1.742,1.1,3.536,2.1t3.629,1.877a.515.515,0,0,1,.15.111.534.534,0,0,1,.1.152.516.516,0,0,1,.042.175.475.475,0,0,1-.024.179.387.387,0,0,1-.026.072.371.371,0,0,1-.039.064.338.338,0,0,1-.112.1.3.3,0,0,1-.072.022.312.312,0,0,1-.075,0,.327.327,0,0,1-.076-.014.346.346,0,0,1-.073-.031l-.453-.218-.452-.221-.451-.224q-.225-.113-.45-.229-1.87-.961-3.69-2.036t-3.586-2.264q-1.765-1.188-3.466-2.482t-3.33-2.692c-1.049-.9-2.085-1.824-3.1-2.783s-2-1.948-2.946-2.969-1.86-2.073-2.723-3.157S947.908,529.054,947.155,527.907Z" transform="translate(-695.284 -405.574)"/><path class="c" d="M804.933,205.361l-.893.116L810.028,183a9.7,9.7,0,0,0,.209-4.62,6.1,6.1,0,0,0-1.862-3.255,6.972,6.972,0,0,0-3.507-1.628,12.067,12.067,0,0,0-4.751.213h0l-40.693,9.267a14.37,14.37,0,0,0-4.031,1.658,21.138,21.138,0,0,0-3.774,2.862,23.067,23.067,0,0,0-3.16,3.685,18.784,18.784,0,0,0-2.182,4.17h0L703.7,312.465a24.18,24.18,0,0,0-1.369,5.975,18.134,18.134,0,0,0,.261,5.429,11.155,11.155,0,0,0,1.838,4.314,7.01,7.01,0,0,0,3.372,2.544h0l42.995,14.8a11.194,11.194,0,0,0,5.934.353,14.863,14.863,0,0,0,5.815-2.678,20.594,20.594,0,0,0,4.909-5.261,24.807,24.807,0,0,0,3.223-7.25h0L799.5,222.509l.9-.072Z" transform="translate(-529.576 -172.115)"/><path class="d" d="M794.933,201.361l-.893.116L800.028,179a9.7,9.7,0,0,0,.209-4.62,6.1,6.1,0,0,0-1.862-3.255,6.972,6.972,0,0,0-3.507-1.628,12.066,12.066,0,0,0-4.751.213h0l-40.693,9.267a14.372,14.372,0,0,0-4.031,1.659,21.146,21.146,0,0,0-3.774,2.862,23.072,23.072,0,0,0-3.16,3.685,18.783,18.783,0,0,0-2.182,4.17h0L693.7,308.464a24.18,24.18,0,0,0-1.369,5.975,18.134,18.134,0,0,0,.261,5.429,11.155,11.155,0,0,0,1.838,4.314,7.01,7.01,0,0,0,3.372,2.544h0l42.995,14.8a11.194,11.194,0,0,0,5.934.353,14.863,14.863,0,0,0,5.815-2.678,20.594,20.594,0,0,0,4.909-5.261,24.808,24.808,0,0,0,3.223-7.25h0L789.5,218.509l.9-.072Z" transform="translate(-522.686 -169.359)"/><path class="b" d="M796.39,179.384l-5.982,1.31a3.489,3.489,0,0,1-.151,1.538,6.219,6.219,0,0,1-.8,1.628,8.645,8.645,0,0,1-3.028,2.724q-.218.116-.434.214t-.432.178q-.215.08-.428.141t-.42.1l-23.387,4.736a2.775,2.775,0,0,1-1.317-.015,1.618,1.618,0,0,1-.871-.587,1.93,1.93,0,0,1-.355-1.051,3.705,3.705,0,0,1,.224-1.415q.062-.183.142-.369t.174-.371q.093-.187.2-.371t.233-.369l-4.428.97A10.635,10.635,0,0,0,752.3,189.6a15.747,15.747,0,0,0-2.848,2.146,17.229,17.229,0,0,0-2.386,2.778,13.993,13.993,0,0,0-1.638,3.144L702.934,315.8a17.986,17.986,0,0,0-1.01,4.5,13.383,13.383,0,0,0,.229,4.062,8.2,8.2,0,0,0,1.411,3.193,5.2,5.2,0,0,0,2.54,1.846h0l43.311,14.071a8.429,8.429,0,0,0,4.419.2,11.189,11.189,0,0,0,4.3-2.015,15.406,15.406,0,0,0,3.618-3.888,18.5,18.5,0,0,0,2.391-5.343h0L803.712,186.4a7.317,7.317,0,0,0,.18-3.436,4.586,4.586,0,0,0-1.355-2.447,5.166,5.166,0,0,0-2.6-1.251A8.91,8.91,0,0,0,796.39,179.384Z" transform="translate(-529.319 -176.097)"/><path class="b" d="M740.254,295.122H654.1v-29.2h86.158Z" transform="translate(-496.41 -235.889)"/><rect class="b" width="84.44" height="40.932" transform="translate(134.214 69.537)"/><circle class="e" cx="6.108" cy="6.108" r="6.108" transform="translate(141.824 76.977)"/><path class="f" d="M665.834,423.385a1.018,1.018,0,1,0,0,2.036h47.99a1.018,1.018,0,0,0,0-2.036Z" transform="translate(-503.796 -344.372)"/><path class="f" d="M665.829,443.022a1.018,1.018,0,1,0,0,2.036H686.48a1.018,1.018,0,0,0,0-2.036Z" transform="translate(-503.792 -357.901)"/><path class="f" d="M604.565,474.415c-.774,0-1.4.457-1.4,1.018s.63,1.018,1.4,1.018h66.212c.774,0,1.4-.457,1.4-1.018s-.63-1.018-1.4-1.018Z" transform="translate(-461.318 -379.529)"/><path class="f" d="M604.565,494.052c-.774,0-1.4.457-1.4,1.018s.63,1.018,1.4,1.018h50.971c.774,0,1.4-.457,1.4-1.018s-.63-1.018-1.4-1.018Z" transform="translate(-461.318 -393.058)"/><path class="f" d="M662.032,432.809H575.874V390.16h86.158Zm-84.44-1.717h82.723V391.877H577.592Z" transform="translate(-442.519 -321.481)"/><circle class="e" cx="6.108" cy="6.108" r="6.108" transform="translate(166.154 38.335)"/><path class="f" d="M744.056,299.151a1.018,1.018,0,0,0,0,2.036h47.991a1.018,1.018,0,0,0,0-2.036Z" transform="translate(-557.688 -258.78)"/><path class="f" d="M744.051,318.788a1.018,1.018,0,1,0,0,2.036h37.762a1.018,1.018,0,1,0,0-2.036Z" transform="translate(-557.683 -272.309)"/><path class="f" d="M740.254,295.122H654.1v-29.2h86.158Zm-84.44-1.717h82.723V267.643H655.813Z" transform="translate(-496.41 -235.889)"/><path class="g" d="M239.683,510.882h4.343l2.066-16.753h-6.41Z" transform="translate(-165.13 -340.433)"/><path class="c" d="M0,0H13.65V5.274H4.63A4.63,4.63,0,0,1,0,.643Z" transform="translate(87.271 174.481) rotate(179.997)"/><path class="g" d="M100.06,497.376l3.806,2.092,9.882-13.684-5.617-3.088Z" transform="translate(-68.937 -332.556)"/><path class="c" d="M0,0H13.65V5.274H4.63A4.63,4.63,0,0,1,0,.643Z" transform="translate(40.326 174.481) rotate(-151.199)"/><path class="c" d="M299.288,512.824a1.594,1.594,0,0,1-1.579-1.389l-5.432-41.856a.886.886,0,0,0-1.654-.314l-22.637,41.07a1.6,1.6,0,0,1-1.964.721l-4.934-1.88a1.594,1.594,0,0,1-.909-2.091l15.681-38.522a1.227,1.227,0,0,0,.08-.305c2.124-16.439,7.528-24.8,9.134-26.969a1.234,1.234,0,0,0,.176-1.124l-.221-.662a1.593,1.593,0,0,1,.307-1.551c5.786-6.59,15.87-2.994,15.971-2.957l.051.019.032.043c11.307,15.507,7.127,65.873,6.174,75.812A1.59,1.59,0,0,1,306.1,512.3l-6.686.515C299.37,512.822,299.329,512.824,299.288,512.824Z" transform="translate(-224.938 -351.674)"/><circle class="h" cx="9.666" cy="9.666" r="9.666" transform="translate(61.618 25.517)"/><path class="i" d="M328.274,371.021l28.442,2.589c-2.48-8.622-4.751-17.214-2.9-25.775,2.352-7.643,2.57-11.877-3.633-15.476l-4.188-9.344-7.58-.276-3.7-1.013a24.341,24.341,0,0,0-3.455,16.1C332.87,350.009,332.436,361.317,328.274,371.021Z" transform="translate(-271.934 -274.333)"/><path class="c" d="M335.023,275.877l-2.861-13.131a19.986,19.986,0,0,1,.437-9.353,7.667,7.667,0,0,1,.347-.913,10.5,10.5,0,0,1,8.891-6.1c6.5-.449,7.456.236,7.691.574,3.674-.148,6.523,1.271,7.823,3.9a1.985,1.985,0,0,1-1.239,2.779,19.3,19.3,0,0,1-6.282.934c-3.837,4.6-2.268,13.033,1.624,18.057l.153.2-3.857.79-4.482-6.241a.664.664,0,0,0-1.189.521l1.361,6.61Z" transform="translate(-274.365 -222.321)"/><path class="j" d="M269.7,559.779H0V559.1H269.823Z" transform="translate(0 -385.196)"/><path class="b" d="M326.618,402.411l-70.346,49.746-16.857-23.838,70.346-49.746Z" transform="translate(-210.714 -313.499)"/><circle class="e" cx="6.108" cy="6.108" r="6.108" transform="matrix(0.816, -0.577, 0.577, 0.816, 40.408, 116.707)"/><path class="f" d="M332.937,450.6a1.018,1.018,0,0,0,1.176,1.662L373.3,424.555a1.018,1.018,0,0,0-1.176-1.662Z" transform="translate(-274.85 -343.904)"/><path class="f" d="M344.271,479.721a1.018,1.018,0,0,0,1.172,1.665l0,0,30.828-21.8a1.018,1.018,0,1,0-1.176-1.662Z" transform="translate(-282.657 -368.036)"/><path class="f" d="M326.618,402.411l-70.346,49.746-16.857-23.838,70.346-49.746Zm-69.935,47.352L324.225,402l-14.874-21.034L241.809,428.73Z" transform="translate(-210.714 -313.499)"/><path class="a" d="M1031.845,426.815a1.8,1.8,0,0,1,.73.124,1.723,1.723,0,0,1,.587.39,1.744,1.744,0,0,1,.384.6,1.851,1.851,0,0,1,.121.741,2,2,0,0,1-.178.75,2.1,2.1,0,0,1-.431.622,2.078,2.078,0,0,1-.619.427,1.947,1.947,0,0,1-.743.17,1.8,1.8,0,0,1-.73-.131,1.724,1.724,0,0,1-.583-.394,1.746,1.746,0,0,1-.379-.6,1.856,1.856,0,0,1-.118-.737,2,2,0,0,1,.177-.747,2.1,2.1,0,0,1,.427-.617,2.079,2.079,0,0,1,.615-.427A1.947,1.947,0,0,1,1031.845,426.815Z" transform="translate(-755.313 -346.734)"/><path class="h" d="M368.091,414.42l-4.574-25.007.322-15.465-10.31-.322,1.933,17.4,6.666,24.126a4.357,4.357,0,1,0,5.963-.729Z" transform="translate(-289.333 -310.09)"/><path class="i" d="M351.457,338.84a16.293,16.293,0,0,1,11.6,0l-.644-12.888a5.155,5.155,0,0,0-5.155-5.155h0a5.155,5.155,0,0,0-5.155,5.155Z" transform="translate(-287.905 -273.694)"/></svg>