<svg xmlns="http://www.w3.org/2000/svg" width="255.773" height="211.439" viewBox="0 0 255.773 211.439"><defs><style>.a{fill:#cacaca;}.b{fill:#91ffb9;}.c{fill:#e4e4e4;}.d{fill:#f0f0f0;}.e{fill:#52a657;}.f{fill:#a0616a;}.g{fill:#2f2e41;}.h{fill:#ffb6b6;}.i{fill:#ffb8b8;}</style></defs><path class="a" d="M509.9,199.126H254.87a.37.37,0,0,1,0-.74H509.9a.37.37,0,0,1,0,.74Z" transform="translate(-254.5 -185.801)"/><circle class="b" cx="4.072" cy="4.072" r="4.072" transform="translate(4.63)"/><circle class="b" cx="4.072" cy="4.072" r="4.072" transform="translate(18.695)"/><circle class="b" cx="4.072" cy="4.072" r="4.072" transform="translate(32.761)"/><path class="c" d="M572.144,291.839H507.506a3.045,3.045,0,0,1,0-6.089h64.638a3.045,3.045,0,0,1,0,6.089Z" transform="translate(-411.939 -240.827)"/><path class="c" d="M579.456,263.684H535.661a3.045,3.045,0,1,1,0-6.089h43.794a3.045,3.045,0,0,1,0,6.089Z" transform="translate(-429.672 -223.094)"/><circle class="d" cx="27.021" cy="27.021" r="27.021" transform="translate(18.778 82.998)"/><circle class="d" cx="27.021" cy="27.021" r="27.021" transform="translate(193.489 82.998)"/><circle class="d" cx="27.021" cy="27.021" r="27.021" transform="translate(100.951 82.998)"/><path class="e" d="M838.121,480.826a41.636,41.636,0,0,0-6.643-2.8l-.292-3.231-11.847-1.276-1.506,4.13-4.252,1.6a2.074,2.074,0,0,0-.432.225h0a4.2,4.2,0,0,0-1.95.674,4.319,4.319,0,0,0-1.043.935c.575.436,1.173.84,1.788,1.227l.027.013c.175.108.355.216.535.319.324.193.656.377.989.553l.211.108c.485.252.98.49,1.488.71.1.045.216.09.319.135l.022.009c.238.1.477.193.719.283a23.627,23.627,0,0,0,2.436.782,25.051,25.051,0,0,0,6.458.845c.8,0,1.582-.036,2.36-.112a24.945,24.945,0,0,0,5.231-1.056s.009,0,.013,0a24.55,24.55,0,0,0,3.142-1.245s.013,0,.018-.009c.229-.108.449-.225.674-.337l.108-.054c.18-.094.36-.189.54-.288.449-.247.89-.508,1.325-.786.121-.072.238-.148.36-.229.171-.112.341-.229.508-.351C839.006,481.325,838.57,481.069,838.121,480.826Z" transform="translate(-604.479 -359.096)"/><circle class="f" cx="8.532" cy="8.532" r="8.532" transform="translate(211.786 95.319)"/><path class="g" d="M827.807,420.1a5.4,5.4,0,0,0,3.757,1.461,35.383,35.383,0,0,0,9.609-.785c.2,1.893-.337,3.934.778,5.492a25.5,25.5,0,0,0,.906-5.779,5.532,5.532,0,0,0-.32-2.475,2.277,2.277,0,0,0-1.939-1.43,4.861,4.861,0,0,1,2.168-.927l-2.709-1.361.7-.714-4.9-.3,1.421-.9a30.8,30.8,0,0,0-6.454-.2,5.54,5.54,0,0,0-2.854.793,2.061,2.061,0,0,0-.775,2.58,3.747,3.747,0,0,0-2.855,2.266,6.049,6.049,0,0,0-.217,2.907,20.611,20.611,0,0,0,1.081,4.571Z" transform="translate(-613.217 -320.402)"/><circle class="g" cx="3.608" cy="3.608" r="3.608" transform="translate(125.864 88.174)"/><path class="g" d="M592.809,407.11a3.608,3.608,0,0,1,1.312-6.055,3.607,3.607,0,1,0,1.672,6.987,3.6,3.6,0,0,1-2.984-.932Z" transform="translate(-466.467 -313.452)"/><circle class="g" cx="10.598" cy="10.598" r="10.598" transform="translate(118.946 93.702)"/><path class="g" d="M573.487,423.489a10.6,10.6,0,0,1,14.687-1.111c-.086-.083-.173-.165-.262-.245a10.6,10.6,0,1,0-14.143,15.787l.061.054c.09.08.182.156.274.232a10.6,10.6,0,0,1-.617-14.716Z" transform="translate(-453.371 -325.024)"/><circle class="f" cx="6.825" cy="6.825" r="6.825" transform="translate(122.629 101.156)"/><path class="e" d="M584.411,486.353v2.29c-.419.268-.843.518-1.275.756-.173.1-.346.186-.518.277l-.1.052c-.216.108-.428.22-.648.324,0,0-.013,0-.017.009a23.6,23.6,0,0,1-3.02,1.2s-.008,0-.013,0a23.987,23.987,0,0,1-5.03,1.015c-.747.073-1.5.108-2.268.108a24.082,24.082,0,0,1-6.209-.812,23.388,23.388,0,0,1-3.033-1.024l-.022-.009c-.1-.043-.207-.086-.307-.13-.488-.212-.964-.441-1.43-.683l-.2-.1c-.5-.264-.985-.54-1.465-.838l-.026-.013a23.658,23.658,0,0,1-2.135-1.5c-.35-.268-.687-.549-1.016-.843-.173-.147-.346-.3-.51-.454a23.4,23.4,0,0,1-1.793-1.849,8.744,8.744,0,0,1,.328-1.327l0,0a1.933,1.933,0,0,1,.091-.216,1.716,1.716,0,0,1,.082-.181c.773-1.448,2.174-1.806,3.911-1.884.981-.043,2.065,0,3.211-.009.6,0,1.231-.026,1.858-.082,3.954-.359,3.237-2.692,3.414-3.949.177-1.219,1.275-.164,1.348-.1l0,0a13.944,13.944,0,0,0,7.173,1.257c.423-.052.847-.082,1.27-.1,1.115-.013.873.307.488.57a4.831,4.831,0,0,1-.583.328s-.177,1.08-.359,2.7c-.173,1.547,5.276,2.083,6.343,2.42h0a3.9,3.9,0,0,1,2.454,2.791Z" transform="translate(-442.743 -360.588)"/><ellipse class="f" cx="0.539" cy="0.988" rx="0.539" ry="0.988" transform="translate(122 105.557)"/><ellipse class="f" cx="0.539" cy="0.988" rx="0.539" ry="0.988" transform="translate(135.831 105.557)"/><path class="g" d="M347.977,439.415l1.3,4.492,16.57-.292-.145-8.23c-.115-6.514-4.719-12.133-11.233-12.018s-10.656,5.622-10.541,12.136l.946,8.481,2.7-.048Z" transform="translate(-310.823 -327.505)"/><circle class="h" cx="7.435" cy="7.435" r="7.435" transform="translate(36.949 100.183)"/><path class="g" d="M368.391,436.192a2.883,2.883,0,0,0-.512-1.591c-.034-.048-.069-.093-.1-.137a2.9,2.9,0,0,0-2.323-1.11l-5.344.1-5.34.093a2.893,2.893,0,0,0-2.835,2.938l1.272,2.56.732,1.471.12-.069c4.622-2.6,6.512-2.632,12.629-.216l.124.048.485-1.241,1.1-2.814Z" transform="translate(-315.869 -333.795)"/><path class="e" d="M366.292,484.606c-1.595-1.591-6.99-.959-6.99-.959l-14.24.9c-3.158.234-6,2.763-7.034,3.787.165.162.333.32.505.471a19.933,19.933,0,0,0,23.443,2.227,23.292,23.292,0,0,0,4.7-3.277c.485-.5.872-.492,1.3-1.042a4.29,4.29,0,0,0-1.687-2.1Z" transform="translate(-307.11 -365.395)"/><circle class="d" cx="27.021" cy="27.021" r="27.021" transform="translate(18.778 157.398)"/><circle class="d" cx="27.021" cy="27.021" r="27.021" transform="translate(193.489 157.398)"/><circle class="d" cx="27.021" cy="27.021" r="27.021" transform="translate(100.951 157.398)"/><circle class="i" cx="7.47" cy="7.47" r="7.47" transform="translate(37.887 173.354)"/><path class="g" d="M354.679,637.239s.635-1.115.487-4.838,5.523-1.618,10.26-1.973,3.735,6.217,3.735,6.217.342-.391,1.074-3.562a10.355,10.355,0,0,0-.93-6.332c-.489-3.333-3.127-2.265-3.127-2.265a1.383,1.383,0,0,1,1.026,1.552c-1.075-1.885-3.712-.817-3.712-.817-3.517-2.207-7.082.7-7.082.7-4.249.964-1.757,4.344-1.757,4.344C350.38,632.422,354.679,637.239,354.679,637.239Z" transform="translate(-316.39 -454.077)"/><path class="e" d="M363.121,687.842a41.643,41.643,0,0,0-6.643-2.8l-.292-3.231-11.847-1.276-1.506,4.13-4.252,1.6a2.078,2.078,0,0,0-.432.225h0a4.2,4.2,0,0,0-1.95.674,4.319,4.319,0,0,0-1.043.935c.575.436,1.173.84,1.788,1.227l.027.013c.175.108.355.216.535.319.324.193.656.378.989.553l.211.108c.485.252.98.49,1.488.71.1.045.216.09.319.135l.022.009c.238.1.476.193.719.283a23.634,23.634,0,0,0,2.436.782,25.05,25.05,0,0,0,6.458.845c.8,0,1.582-.036,2.36-.112a24.944,24.944,0,0,0,5.231-1.056s.009,0,.013,0a24.555,24.555,0,0,0,3.142-1.245s.013,0,.018-.009c.229-.108.449-.225.674-.337l.108-.054c.18-.094.36-.189.54-.288.449-.247.89-.508,1.325-.786.121-.072.238-.148.36-.229.171-.112.341-.229.508-.351C364.006,688.341,363.57,688.084,363.121,687.842Z" transform="translate(-305.299 -489.485)"/><path class="e" d="M583.347,691.812l-4.5-.409-2.691-1.965a.015.015,0,0,0,0-.01l-.007,0-.108-.08-.014.125-4.542,1.747-4.667-1.076-1.615,1.747-7.191,2.386a3.654,3.654,0,0,0-.9.851v0c.3.236.612.469.927.69a23.866,23.866,0,0,0,2.219,1.424,25,25,0,0,0,5.924,2.434q.281.078.563.146c.326.08.656.156.986.219q1,.208,2.024.326a24.822,24.822,0,0,0,3.024.181q1.037,0,2.052-.08a25.3,25.3,0,0,0,3.535-.538c.042-.01.083-.017.125-.031a25,25,0,0,0,5.167-1.8c.253-.122.507-.247.757-.375q.922-.474,1.792-1.021c.438-.271.865-.559,1.281-.858.257-.184.51-.372.76-.566l-.027-.057A5.983,5.983,0,0,0,583.347,691.812Z" transform="translate(-445.101 -495.036)"/><path class="g" d="M583.606,630.251a8.273,8.273,0,0,0-1.76-1.33,11.772,11.772,0,0,0-11.917-.108,11.216,11.216,0,0,0-2.427,1.927,11.356,11.356,0,0,0-3.157,7.827v8.653h22.633v-9.539A11.188,11.188,0,0,0,583.606,630.251Z" transform="translate(-449.656 -455.919)"/><circle class="i" cx="8.174" cy="8.174" r="8.174" transform="translate(117.384 174.716)"/><path class="g" d="M587.512,634.08a1.011,1.011,0,0,0-.573-.816,17.068,17.068,0,0,0-15.411.188h-.094l-.031.129c-1.007,7.757-.865,7.927-.8,8a1.01,1.01,0,0,0,.358.26.978.978,0,0,0,.4.083h11.66l.028-.132a19.049,19.049,0,0,1,.521-2.056,22.822,22.822,0,0,1,1.281,2.1l.049.083h2.268a.809.809,0,0,0,.128-.01.972.972,0,0,0,.608-.316C587.963,641.528,588.109,641.369,587.512,634.08Z" transform="translate(-453.569 -458.61)"/><path class="e" d="M831.157,685.4l-.294-3.269-12-1.293-1.519,4.183-4.308,1.614a2.1,2.1,0,0,0-.443.227,4.352,4.352,0,0,0-2.349.954c.1.081.2.159.294.237.02.02.044.037.064.054.274.213.555.423.839.623.075.054.149.108.227.159a22.523,22.523,0,0,0,1.936,1.228q.954.543,1.959,1a24.237,24.237,0,0,0,3.814,1.371q.274.076.548.142c.318.078.639.152.961.213q.974.2,1.973.318a24.189,24.189,0,0,0,2.948.176q1.01,0,2-.078a24.651,24.651,0,0,0,3.445-.525c.041-.01.081-.017.122-.03a24.372,24.372,0,0,0,5.036-1.753c.247-.118.494-.24.738-.365q.9-.462,1.746-.995c.2-.125.4-.254.6-.389A37.82,37.82,0,0,0,831.157,685.4Z" transform="translate(-604.535 -489.676)"/><circle class="f" cx="8.642" cy="8.642" r="8.642" transform="translate(211.216 171.811)"/><path class="g" d="M826.283,626.845a5.458,5.458,0,0,0,3.8,1.479,35.839,35.839,0,0,0,9.732-.795c.2,1.917-.341,3.984.788,5.562a25.819,25.819,0,0,0,.917-5.853,5.606,5.606,0,0,0-.324-2.507,2.306,2.306,0,0,0-1.964-1.448.721.721,0,0,0,.158-.754,2.451,2.451,0,0,0-1.858-1.841l-3.111-.75a13.369,13.369,0,0,0-5.1-1.12,5.609,5.609,0,0,0-2.891.8,2.087,2.087,0,0,0-.785,2.613,3.8,3.8,0,0,0-2.892,2.295,6.125,6.125,0,0,0-.22,2.945,20.872,20.872,0,0,0,1.094,4.63Z" transform="translate(-612.225 -450.602)"/><path class="g" d="M600.454,436.144a3.323,3.323,0,0,0-1.626-1.951,9.269,9.269,0,0,0-2.452-.862,16.13,16.13,0,0,0-4.592-.628,6.068,6.068,0,0,0-4.184,1.749,3.788,3.788,0,0,0-.676,4.295l-.085.348a6.4,6.4,0,0,0,6.253-3.08,5.841,5.841,0,0,0,5.528,2.686,2.59,2.59,0,0,0,.987-.284,2.054,2.054,0,0,0,.845-2.274Z" transform="translate(-463.626 -333.385)"/><path class="e" d="M903.467,168.595h-9.994a.74.74,0,0,1,0-1.481h9.994a.74.74,0,1,1,0,1.481Z" transform="translate(-656.492 -166.104)"/><path class="e" d="M903.467,176.095h-9.994a.74.74,0,0,1,0-1.481h9.994a.74.74,0,1,1,0,1.481Z" transform="translate(-656.492 -170.828)"/><path class="e" d="M903.467,183.595h-9.994a.74.74,0,0,1,0-1.481h9.994a.74.74,0,1,1,0,1.481Z" transform="translate(-656.492 -175.552)"/></svg>