<svg xmlns="http://www.w3.org/2000/svg" width="255" height="198.665" viewBox="0 0 255 198.665"><defs><style>.a{fill:#7fe69d;}.b{fill:#fff;}.c{fill:#f0f0f0;}.d{fill:#3f3d56;}.e{fill:#e4e4e4;}.f{fill:#f2f2f2;}.g{opacity:0.2;}.h{fill:#2f2e41;}.i{fill:#ffb8b8;}.j{fill:#a0616a;}.k{fill:#eceff8;}</style></defs><path class="a" d="M251.814,383.958l-.027-4.554-.4-67.577-.015-2.529L251.15,272.1a81.6,81.6,0,0,0-10.365-5.525c-14.038-6.217-30.73-8.78-44.552-2.1a32.78,32.78,0,0,0-15.985,17.791c-.082.2-.157.4-.226.6-2.305,6.575-2.288,13.715,1.086,19.881,6.041,11.08,19.551,15.172,31.549,19.082s25.293,10.277,28.283,22.535a22.475,22.475,0,0,0-38.62,6.682c-.219.613-.419,1.232-.594,1.857a21.306,21.306,0,0,0-.75,4.6c-.585,11.884,8.523,22.531,19.331,27.518,9.773,4.5,20.741,5.361,31.547,5.794Z" transform="translate(-177.094 -217.912)"/><path class="b" d="M306.364,591l.027,4.554a49.269,49.269,0,0,0-27.135-27.65,49.783,49.783,0,0,0-22.952-3.4c.175-.625.375-1.244.594-1.857a53.051,53.051,0,0,1,9.11.137,50.588,50.588,0,0,1,28.984,12.969A51.68,51.68,0,0,1,306.364,591Z" transform="translate(-231.671 -429.504)"/><path class="b" d="M255.131,359.725l.015,2.529a63.308,63.308,0,0,0-8.168-6.653,120.54,120.54,0,0,0-29.547-14.412,137.23,137.23,0,0,0-32.757-6.87.982.982,0,0,1-.892-1.02.841.841,0,0,1,.226-.6.7.7,0,0,1,.6-.182c1.377.113,2.747.238,4.124.4a138.674,138.674,0,0,1,33.395,8.051c10.381,3.9,20.647,8.935,29.421,15.776C252.787,357.682,253.984,358.675,255.131,359.725Z" transform="translate(-180.854 -268.34)"/><circle class="c" cx="3.822" cy="3.822" r="3.822" transform="translate(10.772 27.536)"/><path class="d" d="M514.347,165.323h-1.092v-29.9a17.307,17.307,0,0,0-17.307-17.307H432.595a17.307,17.307,0,0,0-17.307,17.307v164.05a17.307,17.307,0,0,0,17.307,17.307h63.354a17.307,17.307,0,0,0,17.307-17.307V186.609h1.092Z" transform="translate(-343.071 -118.113)"/><path class="b" d="M520.756,146.08V309.89c0,.239-.006.476-.021.712a12.92,12.92,0,0,1-12.906,12.211H444.172a12.919,12.919,0,0,1-12.906-12.259q-.018-.328-.018-.664V146.08a12.926,12.926,0,0,1,12.925-12.927H451.9a6.141,6.141,0,0,0,5.684,8.461h36.3a6.142,6.142,0,0,0,5.684-8.461h8.27a12.928,12.928,0,0,1,12.927,12.925Z" transform="translate(-354.255 -128.652)"/><path class="c" d="M519.624,333.364H432.466a1.156,1.156,0,0,1-1.155-1.155V225.279a1.156,1.156,0,0,1,1.155-1.155h87.158a1.156,1.156,0,0,1,1.155,1.155v106.93a1.156,1.156,0,0,1-1.155,1.155Z" transform="translate(-354.299 -192.395)"/><path class="b" d="M528.62,249.053H454.434a1.156,1.156,0,0,0-1.155,1.155v77.263a1.155,1.155,0,0,0,1.155,1.152H528.62a1.155,1.155,0,0,0,1.155-1.152V250.209A1.156,1.156,0,0,0,528.62,249.053Z" transform="translate(-369.692 -209.864)"/><circle class="a" cx="2.993" cy="2.993" r="2.993" transform="translate(80.462 21.849)"/><path class="c" d="M486.546,360.1c-5.111-8.231-3.35-18.747-2.489-28.4a129.631,129.631,0,0,0-3.43-43.165,33.286,33.286,0,0,1,8.053,16.835c.844,5.224.427,10.6,1.383,15.8,2.049,11.16,10.3,21.225,9.025,32.5-.282,2.492-1.232,5.173-3.445,6.353-2.5,1.333-5.546.273-8.166-.8" transform="translate(-388.854 -237.531)"/><path class="a" d="M459.616,536.994a2.992,2.992,0,1,0-4.242,4.22l.01.01,4.231,4.231,4.231-4.231a2.992,2.992,0,1,0-4.231-4.231Z" transform="translate(-370.55 -411.007)"/><path class="a" d="M503.616,536.994a2.992,2.992,0,1,0-4.242,4.22l.01.01,4.231,4.231,4.231-4.231a2.992,2.992,0,1,0-4.231-4.231Z" transform="translate(-401.381 -411.007)"/><path class="a" d="M547.616,536.994a2.992,2.992,0,1,0-4.242,4.22l.01.01,4.231,4.231,4.231-4.231a2.992,2.992,0,1,0-4.231-4.231Z" transform="translate(-432.212 -411.007)"/><path class="a" d="M533.09,198.142H490.885a2.309,2.309,0,0,1,0-4.619H533.09a2.309,2.309,0,0,1,0,4.619Z" transform="translate(-394.424 -170.953)"/><path class="c" d="M519.622,656.123H432.464a1.156,1.156,0,0,0-1.155,1.155V677a12.919,12.919,0,0,0,12.906,12.259h63.657a12.92,12.92,0,0,0,12.906-12.211V657.279A1.156,1.156,0,0,0,519.622,656.123Z" transform="translate(-354.297 -495.099)"/><path class="b" d="M528.62,681.053H454.434a1.156,1.156,0,0,0-1.155,1.155v22.866a12.856,12.856,0,0,0,6.33,1.655h63.657a12.872,12.872,0,0,0,6.51-1.757V682.209A1.156,1.156,0,0,0,528.62,681.053Z" transform="translate(-369.692 -512.568)"/><circle class="e" cx="2.993" cy="2.993" r="2.993" transform="translate(80.462 151.144)"/><path class="e" d="M533.09,630.142H490.885a2.309,2.309,0,1,1,0-4.619H533.09a2.309,2.309,0,0,1,0,4.619Z" transform="translate(-394.424 -473.658)"/><path class="f" d="M506.258,747.719H484.329c2.233-4.394,6.354-7.973,11.212-8.162a9.89,9.89,0,0,1,2.185.162c.3.054.6.126.895.2A10.545,10.545,0,0,1,506.258,747.719Z" transform="translate(-391.449 -553.557)"/><path class="f" d="M605.076,716.6H575.3a43.074,43.074,0,0,0,1.164-4.16c1.338-5.779,2.7-12.268,7.635-15.554a11.413,11.413,0,0,1,9.26-1.323c.1.024.195.051.29.081a15.393,15.393,0,0,1,8.985,6.749C605.156,706.624,605.719,711.658,605.076,716.6Z" transform="translate(-455.192 -522.437)"/><path class="b" d="M530.292,744.585a23.116,23.116,0,0,1-.314,3.529h-.856a23.317,23.317,0,0,0-.033-8c.3.054.6.126.895.2A24.534,24.534,0,0,1,530.292,744.585Z" transform="translate(-422.812 -553.952)"/><path class="b" d="M627.316,696.9c0,.646,0,1.3-.018,1.945a65.025,65.025,0,0,1-2.394,15.961q-.386,1.392-.835,2.774h-.88c.539-1.64,1.009-3.3,1.416-4.965a64.274,64.274,0,0,0,1.868-15.611.464.464,0,0,1,.443-.461.4.4,0,0,1,.29.081A.33.33,0,0,1,627.316,696.9Z" transform="translate(-488.749 -523.423)"/><circle class="f" cx="1.796" cy="1.796" r="1.796" transform="translate(152.579 175.407)"/><circle class="a" cx="1.796" cy="1.796" r="1.796" transform="translate(109.534 44.355)"/><circle class="e" cx="1.796" cy="1.796" r="1.796" transform="translate(142.756 54.83)"/><circle class="e" cx="1.796" cy="1.796" r="1.796" transform="translate(141.858 91.344)"/><path class="d" d="M568.419,414.253l-1.215-3.891a22.43,22.43,0,0,0-.793-2.67c-1.371-4.142-4.382-12.5-7.928-21.223L554.31,382.3l-1.155-.754-1.093-.709-.47.434-4.48,4.136-.033.272-2.927,24.877s-.009.069-.024.2c-.033.29-.1.883-.192,1.73-.171,1.592-.446,4.373-.718,7.877h27.107Z" transform="translate(-432.713 -302.202)"/><path class="g" d="M386.573,315.262l-1.138,7.1,7.7,3.176Z" transform="translate(-270.076 -220.905)"/><path class="h" d="M567.478,319.45a10.278,10.278,0,0,0-17.859,6.944v7.671A1.383,1.383,0,0,0,551,335.447h17.8a1.383,1.383,0,0,0,1.38-1.383v-7.671A10.26,10.26,0,0,0,567.478,319.45Z" transform="translate(-437.198 -256.852)"/><circle class="i" cx="7.537" cy="7.537" r="7.537" transform="translate(117.13 63.057)"/><path class="h" d="M579.642,325.918a8.051,8.051,0,0,0-3-.575h-1.535a8.12,8.12,0,0,0-6.608,3.4c-.051.067-.1.135-.141.2a8.067,8.067,0,0,0-1.383,4.528v.153h3.241l1.107-3.1.221,3.1h1.676l.557-1.562.111,1.562a16.216,16.216,0,0,0,10.885,0v-.153a8.141,8.141,0,0,0-5.136-7.557Z" transform="translate(-449.362 -263.32)"/><path class="h" d="M571.8,349.35a.394.394,0,0,0-.024-.051,18.85,18.85,0,0,1-2.359-7.7,6.641,6.641,0,0,1,1.479-4.627l.216-.254h-8.772v13.172l2.652.467,1.562.275,3.756.664a1.362,1.362,0,0,0,.245.021,1.377,1.377,0,0,0,1.113-.569,1.342,1.342,0,0,0,.263-.862A1.3,1.3,0,0,0,571.8,349.35Z" transform="translate(-446.111 -271.287)"/><path class="g" d="M546.95,478.977h0a13.845,13.845,0,0,0,16.619,3.359l1.641-.812Z" transform="translate(-435.328 -370.972)"/><path class="j" d="M830.941,531.649a3.543,3.543,0,0,1,4.326-3.287l4.686-6.6,4.707,1.869-6.748,9.232a3.562,3.562,0,0,1-6.971-1.211Z" transform="translate(-634.318 -400.949)"/><path class="d" d="M848.128,452.974l8.331-14.012-3.394-9.051,4.623-12.328.171.073c.112.048,2.739,1.22,3.128,5.418l5.313,16.7L852.12,458.163Z" transform="translate(-646.364 -327.953)"/><path class="j" d="M687.517,363.649a3.543,3.543,0,0,1,2.943,4.567l6.221,5.182-2.227,4.549-8.683-7.442a3.563,3.563,0,0,1,1.746-6.857Z" transform="translate(-531 -290.14)"/><path class="d" d="M701.7,382.311l13.326,9.39,9.287-2.684,11.934,5.562-.086.164c-.056.108-1.428,2.636-5.643,2.7l-17.057,4.006L696.221,385.89Z" transform="translate(-539.922 -303.238)"/><path class="j" d="M606,603.862h-4.633l-2.2-17.869H606Z" transform="translate(-419.839 -410.608)"/><path class="h" d="M580.905,641.274h10.334V646.9h-14.56v-1.4A4.226,4.226,0,0,1,580.905,641.274Z" transform="translate(-404.082 -449.343)"/><path class="j" d="M667.869,603.862h-4.633l-2.2-17.869h6.837Z" transform="translate(-463.188 -410.608)"/><path class="h" d="M642.77,641.274H653.1V646.9h-14.56v-1.4A4.226,4.226,0,0,1,642.77,641.274Z" transform="translate(-447.431 -449.343)"/><path class="h" d="M623.914,427.774l-.378,26.451-.378,34.764-8.313-.756-4.157-47.99-5.29,47.99h-8.583l-.864-48.368,3.023-10.58Z" transform="translate(-417.585 -299.743)"/><path class="d" d="M774.318,432.991l-1.266-.055,5.883-32.406-2.409-9.795a2.144,2.144,0,0,1,1.328-2.518l4.334-1.625,1.531-4.21,12.08,1.3.3,3.291c1.309.42,12.088,4.01,11.345,8.1-.734,4.037-5.068,16.74-5.289,17.383l-.759,18.217-.093.047a44.664,44.664,0,0,1-17.484,4.149A23,23,0,0,1,774.318,432.991Z" transform="translate(-593.758 -303.287)"/><circle class="j" cx="8.697" cy="8.697" r="8.697" transform="translate(183.723 71.774) rotate(-61.337)"/><path class="h" d="M812.149,328.027a2.87,2.87,0,0,1-4.952-1.594,2.924,2.924,0,0,1,0-.563c.111-1.068.729-2.038.581-3.167a1.66,1.66,0,0,0-.3-.777c-1.321-1.769-4.421.791-5.668-.81-.764-.982.134-2.528-.453-3.625-.774-1.448-3.067-.734-4.505-1.527-1.6-.883-1.5-3.337-.451-4.83a7.6,7.6,0,0,1,5.76-2.933,15.455,15.455,0,0,1,6.509,1.27,13.007,13.007,0,0,1,6.15,4.264,10.41,10.41,0,0,1,1.052,8.863C815.336,324.394,813.5,326.586,812.149,328.027Z" transform="translate(-609.577 -251.295)"/><path class="k" d="M428.7,778.712H174.3a.3.3,0,0,1,0-.6H428.7a.3.3,0,0,1,0,.6Z" transform="translate(-174 -580.578)"/><path class="a" d="M625.508,466.494h-4.661a.6.6,0,0,1-.6-.543l-.933-9.563h7.724l-.933,9.563a.6.6,0,0,1-.6.543Z" transform="translate(-486.034 -355.144)"/><path class="d" d="M625.648,454.212h-7.7a.6.6,0,0,1-.6-.6v-1.444a.6.6,0,0,1,.6-.6h7.7a.6.6,0,0,1,.6.6v1.444a.6.6,0,0,1-.6.6Z" transform="translate(-484.655 -351.764)"/><path class="i" d="M598.672,468.553a3.459,3.459,0,0,0-5.3.16l-7.61-2.136-2.426,4.308,10.789,2.866a3.478,3.478,0,0,0,4.549-5.2Z" transform="translate(-460.822 -362.283)"/><path class="d" d="M543.239,417.468l-3.612-2.3-1.03-.485-4.654-2.194c.138-.473.533-1.886.907-3.675.874-4.187,1.619-10.439-1.389-11.535a4.221,4.221,0,0,0-1.332-.269,3.483,3.483,0,0,0-1.754.4c-2.254,1.176-3.149,4.486-3.182,4.609l-2.786,7.647c-.257.353-2.906,4.023-2.478,6.74a2.85,2.85,0,0,0,1.2,1.951,51.393,51.393,0,0,0,6.052,3.732q.732.377,1.431.7a17.045,17.045,0,0,0,6.845,1.8,7.647,7.647,0,0,0,1.877-.218l7.51-.171.048-.216.018-.084,1-4.609.281-1.3Z" transform="translate(-417.763 -313.534)"/></svg>